<svg width="15" height="15" viewBox="0 0 15 15" fill="none" xmlns="http://www.w3.org/2000/svg">
<path d="M13.5 7.03615C13.5776 7.08989 13.6406 7.15958 13.684 7.23968C13.7274 7.31979 13.75 7.40813 13.75 7.49769C13.75 7.58726 13.7274 7.67559 13.684 7.7557C13.6406 7.83581 13.5776 7.90549 13.5 7.95923L5.99875 13.1504C5.90589 13.2147 5.79548 13.2538 5.67988 13.2634C5.56428 13.2731 5.44806 13.2528 5.34424 13.2049C5.24043 13.1569 5.15311 13.0833 5.09209 12.9922C5.03107 12.901 4.99875 12.796 4.99875 12.6888L4.99875 2.31115C4.99875 2.20401 5.03107 2.09899 5.09209 2.00785C5.15311 1.91671 5.24043 1.84305 5.34424 1.79514C5.44806 1.74722 5.56428 1.72694 5.67988 1.73656C5.79548 1.74618 5.90589 1.78533 5.99875 1.84962L13.5 7.03615ZM14.25 8.88231C15.25 8.19 15.25 6.80539 14.25 6.11308L6.7475 0.925384C5.51125 0.0715381 3.7475 0.884999 3.7475 2.31L3.7475 12.6888C3.7475 14.115 5.5125 14.9285 6.7475 14.0735L14.25 8.88231ZM1.25 0.576922C1.25 0.423913 1.18415 0.27717 1.06694 0.168976C0.949732 0.0607823 0.79076 -6.21106e-07 0.625 -6.28351e-07C0.45924 -6.35597e-07 0.300268 0.0607823 0.183058 0.168976C0.0658474 0.27717 -1.85299e-08 0.423913 -2.52181e-08 0.576922L-6.30453e-07 14.4231C-6.37141e-07 14.5761 0.0658468 14.7228 0.183057 14.831C0.300268 14.9392 0.459239 15 0.624999 15C0.790759 15 0.949731 14.9392 1.06694 14.831C1.18415 14.7228 1.25 14.5761 1.25 14.4231L1.25 0.576922Z" fill="#181E37"/>
</svg>
