<svg width="31" height="27" viewBox="0 0 31 27" fill="none" xmlns="http://www.w3.org/2000/svg">
<path d="M5.50586 19.1088C5.52032 18.0147 5.96498 16.9702 6.74366 16.2015C7.52233 15.4327 8.5724 15.0013 9.66669 15.0008H14.6667C15.761 15.0013 16.8111 15.4327 17.5897 16.2015C18.3684 16.9702 18.8131 18.0147 18.8275 19.1088C16.9999 20.7556 14.6269 21.667 12.1667 21.667C9.70648 21.667 7.33349 20.7556 5.50586 19.1088ZM15.9167 8.75124C15.9167 9.49286 15.6968 10.2178 15.2847 10.8345C14.8726 11.4511 14.287 11.9317 13.6018 12.2155C12.9165 12.4993 12.1625 12.5736 11.4351 12.4289C10.7077 12.2842 10.0395 11.9271 9.51504 11.4027C8.9906 10.8783 8.63344 10.2101 8.48875 9.48277C8.34405 8.7554 8.41832 8.00146 8.70214 7.31629C8.98597 6.63112 9.46662 6.04549 10.0833 5.63347C10.7 5.22144 11.425 5.00153 12.1667 5.00153C13.1613 5.00153 14.1151 5.39658 14.8183 6.09979C15.5216 6.803 15.9167 7.75675 15.9167 8.75124Z" fill="#EFF7CF"/>
<path d="M21.1242 19.1088C22.3209 17.669 23.1533 15.9621 23.5508 14.1326C23.9484 12.3031 23.8994 10.4048 23.4081 8.59824C22.9167 6.79167 21.9975 5.13001 20.728 3.75383C19.4586 2.37764 17.8764 1.32741 16.1152 0.691982C14.354 0.0565551 12.4657 -0.145375 10.61 0.103272C8.75423 0.35192 6.98568 1.04383 5.45393 2.12047C3.92218 3.19712 2.67229 4.62682 1.80999 6.28863C0.947698 7.95044 0.498365 9.79548 0.500004 11.6677C0.500634 14.3893 1.45979 17.0237 3.20917 19.1088L3.1925 19.1229C3.25084 19.1929 3.3175 19.2529 3.3775 19.3221C3.4525 19.4079 3.53334 19.4887 3.61084 19.5721C3.84417 19.8254 4.08417 20.0687 4.33584 20.297C4.4125 20.367 4.49167 20.432 4.56917 20.4987C4.83584 20.7286 5.11 20.947 5.39417 21.1503C5.43084 21.1753 5.46417 21.2078 5.50084 21.2336V21.2236C7.45259 22.597 9.78092 23.334 12.1675 23.334C14.5541 23.334 16.8824 22.597 18.8342 21.2236V21.2336C18.8708 21.2078 18.9033 21.1753 18.9408 21.1503C19.2242 20.9461 19.4992 20.7286 19.7658 20.4987C19.8433 20.432 19.9225 20.3662 19.9992 20.297C20.2508 20.0679 20.4908 19.8254 20.7242 19.5721C20.8017 19.4887 20.8817 19.4079 20.9575 19.3221C21.0167 19.2529 21.0842 19.1929 21.1425 19.1221L21.1242 19.1088ZM12.1667 5.0015C12.9084 5.0015 13.6334 5.22142 14.2501 5.63344C14.8667 6.04546 15.3474 6.63109 15.6312 7.31626C15.915 8.00143 15.9893 8.75537 15.8446 9.48275C15.6999 10.2101 15.3428 10.8783 14.8183 11.4027C14.2939 11.9271 13.6257 12.2842 12.8983 12.4289C12.1708 12.5736 11.4168 12.4993 10.7316 12.2155C10.0464 11.9317 9.46072 11.4511 9.04866 10.8344C8.6366 10.2178 8.41667 9.49284 8.41667 8.75121C8.41667 7.75673 8.81176 6.80297 9.51502 6.09977C10.2183 5.39656 11.1721 5.0015 12.1667 5.0015ZM5.50584 19.1088C5.52029 18.0147 5.96496 16.9702 6.74364 16.2014C7.52231 15.4326 8.57238 15.0013 9.66667 15.0007H14.6667C15.761 15.0013 16.811 15.4326 17.5897 16.2014C18.3684 16.9702 18.813 18.0147 18.8275 19.1088C16.9999 20.7556 14.6269 21.667 12.1667 21.667C9.70646 21.667 7.33347 20.7556 5.50584 19.1088Z" fill="#181E37"/>
<path d="M26.96 20.5473H30.46V22.6873H26.96V26.4473H24.72V22.6873H21.24V20.5473H24.72V16.7473H26.96V20.5473Z" fill="#181E37"/>
</svg>
