<svg width="12" height="14" viewBox="0 0 12 14" fill="none" xmlns="http://www.w3.org/2000/svg">
<path d="M10.8 6.598C10.8621 6.64457 10.9125 6.70497 10.9472 6.77439C10.9819 6.84382 11 6.92038 11 6.998C11 7.07562 10.9819 7.15218 10.9472 7.22161C10.9125 7.29103 10.8621 7.35143 10.8 7.398L4.799 11.897C4.72471 11.9527 4.63638 11.9866 4.5439 11.995C4.45142 12.0033 4.35845 11.9857 4.27539 11.9442C4.19234 11.9027 4.12249 11.8389 4.07367 11.7599C4.02486 11.6809 3.999 11.5899 3.999 11.497L3.999 2.503C3.999 2.41014 4.02486 2.31912 4.07367 2.24013C4.12249 2.16115 4.19234 2.09731 4.27539 2.05579C4.35845 2.01426 4.45142 1.99668 4.5439 2.00502C4.63638 2.01336 4.72472 2.04729 4.799 2.103L10.8 6.598ZM11.4 8.198C12.2 7.598 12.2 6.398 11.4 5.798L5.398 1.302C4.409 0.562 2.998 1.267 2.998 2.502L2.998 11.497C2.998 12.733 4.41 13.438 5.398 12.697L11.4 8.198ZM1 1C1 0.867391 0.947322 0.740214 0.853554 0.646446C0.759786 0.552678 0.632608 0.5 0.5 0.499999C0.367392 0.499999 0.240214 0.552678 0.146446 0.646446C0.0526781 0.740214 -1.60592e-08 0.867391 -2.18557e-08 0.999999L-5.46392e-07 13C-5.52189e-07 13.1326 0.0526776 13.2598 0.146446 13.3536C0.240214 13.4473 0.367391 13.5 0.499999 13.5C0.632608 13.5 0.759785 13.4473 0.853553 13.3536C0.947321 13.2598 0.999999 13.1326 0.999999 13L1 1Z" fill="#EFF7CF"/>
</svg>
