<svg width="12" height="13" viewBox="0 0 12 13" fill="none" xmlns="http://www.w3.org/2000/svg">
<path d="M10.8 6.098C10.8621 6.14457 10.9125 6.20497 10.9472 6.27439C10.9819 6.34382 11 6.42038 11 6.498C11 6.57562 10.9819 6.65218 10.9472 6.72161C10.9125 6.79103 10.8621 6.85143 10.8 6.898L4.799 11.397C4.72471 11.4527 4.63638 11.4866 4.5439 11.495C4.45142 11.5033 4.35845 11.4857 4.27539 11.4442C4.19234 11.4027 4.12249 11.3389 4.07367 11.2599C4.02486 11.1809 3.999 11.0899 3.999 10.997L3.999 2.003C3.999 1.91014 4.02486 1.81912 4.07367 1.74013C4.12249 1.66115 4.19234 1.59731 4.27539 1.55579C4.35845 1.51426 4.45142 1.49668 4.5439 1.50502C4.63638 1.51336 4.72472 1.54729 4.799 1.603L10.8 6.098ZM11.4 7.698C12.2 7.098 12.2 5.898 11.4 5.298L5.398 0.802C4.409 0.0619997 2.998 0.766999 2.998 2.002L2.998 10.997C2.998 12.233 4.41 12.938 5.398 12.197L11.4 7.698ZM1 0.5C1 0.367391 0.947322 0.240214 0.853554 0.146446C0.759786 0.052678 0.632608 -4.96884e-07 0.5 -5.02681e-07C0.367392 -5.08477e-07 0.240214 0.052678 0.146446 0.146446C0.0526781 0.240214 -1.60592e-08 0.367391 -2.18557e-08 0.499999L-5.46392e-07 12.5C-5.52189e-07 12.6326 0.0526776 12.7598 0.146446 12.8536C0.240214 12.9473 0.367391 13 0.499999 13C0.632608 13 0.759785 12.9473 0.853553 12.8536C0.947321 12.7598 0.999999 12.6326 0.999999 12.5L1 0.5Z" fill="#181E37"/>
</svg>
